<svg xmlns="http://www.w3.org/2000/svg" width="96" height="96" preserveAspectRatio="xMidYMid meet" viewBox="0 0 72 72"><g fill="#000" stroke="none"><path d="M313 620 c-120 -25 -162 -82 -180 -245 -5 -45 -2 -55 23 -84 15 -18 62 -50 103 -71 42 -20 90 -44 107 -54 35 -18 80 -9 90 19 4 8 13 15 21 15 22 0 63 47 63 72 0 13 8 28 19 35 24 15 36 60 20 79 -9 11 -8 18 5 32 22 25 20 64 -5 96 -17 21 -29 26 -65 26 -32 0 -44 4 -44 14 0 8 -10 27 -22 41 -26 29 -72 38 -135 25z m107 -38 c33 -27 54 -152 26 -152 -8 0 -16 -5 -18 -10 -2 -7 -10 -6 -21 3 -12 8 -21 33 -26 67 -7 53 -7 54 -15 23 -4 -20 -24 -47 -49 -69 -27 -23 -33 -32 -17 -24 14 7 35 21 47 32 l22 20 6 -38 c4 -22 9 -47 12 -56 3 -12 -1 -18 -11 -18 -15 0 -39 -32 -34 -47 2 -4 -7 -18 -18 -29 -12 -12 -24 -28 -26 -35 -6 -18 -77 13 -111 50 -35 37 -40 62 -22 112 8 24 15 56 15 71 0 76 178 150 240 100z m128 -78 c25 -17 29 -56 8 -73 -7 -6 -26 -8 -44 -5 -25 5 -31 12 -37 42 -9 51 26 69 73 36z m-5 -112 c30 -27 15 -72 -25 -72 -25 0 -108 42 -108 54 1 18 63 44 90 39 14 -3 33 -13 43 -21z m-73 -71 c25 -11 36 -24 38 -42 7 -59 -53 -62 -114 -6 -33 31 -34 33 -19 55 18 25 29 24 95 -7z m-71 -68 c45 -32 47 -35 25 -57 -20 -20 -22 -20 -62 4 -39 24 -49 45 -32 65 17 20 24 19 69 -12z" transform="matrix(0, -0.1, -0.1, 0, 75.75, 69.649994)"/><path d="M312 365 c0 -16 2 -22 5 -12 2 9 2 23 0 30 -3 6 -5 -1 -5 -18z" transform="matrix(0, -0.1, -0.1, 0, 75.75, 69.649994)"/></g></svg>