<svg xmlns="http://www.w3.org/2000/svg" xmlns:svg="http://www.w3.org/2000/svg" id="svg3098" width="100%" height="100%" x="0" y="0" enable-background="new 0 0 100 100" version="1.1" viewBox="0 0 100 100" xml:space="preserve"><metadata id="metadata3110"/><path id="path3100" d="m 50.558814,95.89 c 2.857,0 5.453,-0.155 7.451,-0.275 10.979,-0.657 21.153,-13.613 23.418,-24.831 l 0.027,-0.164 c 0.176,-1.504 -2.687,-15.32 -5.126,-17.15 -1.859,-1.394 -5.278,-1.729 -7.229,-1.802 0.639,-5.559 2.67,-19.632 4.108,-29.265 0.502,-4.961 -2.589,-7.687 -5.67,-8.161 -3.14,-0.481 -6.784,1.281 -7.677,5.585 l -3.868,23.235 0.29,-31.582 c 0.1,-2.574 -1.072,-4.856 -3.217,-6.205 -2.235,-1.404 -5.135,-1.541 -7.386,-0.348 -2.092,1.107 -3.344,3.22 -3.436,5.794 l -0.346,33.925 c -0.901,-3.902 -4.35,-5.415 -7.348,-4.868 -3.006,0.548 -5.705,3.213 -5.335,7.306 -1.386,-1.699 -3.536,-2.421 -5.766,-1.822 -2.704,0.726 -5.367,3.588 -4.826,8.158 l 0.167,1.849 c 0.042,0.901 1.251,24.196 10.212,34.101 4.949,5.468 14.129,6.52 21.557,6.52 z m 26.914,-25.726 c -2.454,11.766 -12.394,21.021 -19.702,21.458 -6.054,0.362 -20.24,1.211 -25.801,-4.934 -8.001,-8.843 -9.178,-31.466 -9.188,-31.694 l -0.179,-1.989 c -0.27,-2.275 0.754,-3.575 1.885,-3.878 0.407,-0.11 1.417,-0.224 1.97,1.061 0.244,0.568 0.622,1.281 0.622,1.281 l 0.812,1.527 5.9,-2.114 -0.542,-3.773 c -0.352,-2.176 0.813,-3.174 2.02,-3.394 1.052,-0.19 2.404,0.209 2.762,1.971 l 0.987,4.485 6.835,-1.051 0.391,-38.306 c 0.04,-1.105 0.48,-1.913 1.309,-2.352 0.981,-0.52 2.372,-0.438 3.385,0.199 0.646,0.407 1.405,1.209 1.347,2.723 l -0.35,37.846 6.937,0.892 4.92,-29.561 c 0.392,-1.882 1.864,-2.563 3.138,-2.366 1.278,0.196 2.556,1.274 2.31,3.711 -0.43,2.866 -4.308,28.912 -4.34,31.846 -0.053,4.791 0.216,11.467 3.139,14.793 0.729,0.83 1.993,0.911 2.823,0.182 0.83,-0.729 0.911,-1.993 0.182,-2.823 -0.943,-1.073 -2.038,-3.728 -2.141,-10.243 2.117,0.075 4.127,0.45 4.914,0.932 1.129,1.7 3.572,11.612 3.655,13.571 z"/><text id="text3102" x="0" y="115" fill="#000" font-family="'Helvetica Neue', Helvetica, Arial-Unicode, Arial, Sans-serif" font-size="5" font-weight="bold">Created by Herbert Spencer</text><text id="text3104" x="0" y="120" fill="#000" font-family="'Helvetica Neue', Helvetica, Arial-Unicode, Arial, Sans-serif" font-size="5" font-weight="bold">from the Noun Project</text></svg>