<svg xmlns="http://www.w3.org/2000/svg" id="bias" width="100%" height="100%" viewBox="0 0 100 50"><desc>Created with Snap</desc><g transform="matrix(1,0,0,1,0,10)"><line x1="0" x2="100" y1="5" y2="5" stroke="#000" style="stroke-width:.2"/><g><line x1="2" x2="2" y1="4" y2="6" stroke="#000" style="stroke-width:.2"/><text x="2" y="9" style="font-size:2px;font-family:Helvetica;text-anchor:middle;dominant-baseline:middle;alignment-baseline:middle">-5</text></g><g><line x1="4.941" x2="4.941" y1="4" y2="6" stroke="#000" style="stroke-width:.2"/><text x="4.941" y="9" style="font-size:2px;font-family:Helvetica;text-anchor:middle;dominant-baseline:middle;alignment-baseline:middle">-4</text></g><g><line x1="7.882" x2="7.882" y1="4" y2="6" stroke="#000" style="stroke-width:.2"/><text x="7.882" y="9" style="font-size:2px;font-family:Helvetica;text-anchor:middle;dominant-baseline:middle;alignment-baseline:middle">-3</text></g><g><line x1="10.824" x2="10.824" y1="4" y2="6" stroke="#000" style="stroke-width:.2"/><text x="10.824" y="9" style="font-size:2px;font-family:Helvetica;text-anchor:middle;dominant-baseline:middle;alignment-baseline:middle">-2</text></g><g><line x1="13.765" x2="13.765" y1="4" y2="6" stroke="#000" style="stroke-width:.2"/><text x="13.765" y="9" style="font-size:2px;font-family:Helvetica;text-anchor:middle;dominant-baseline:middle;alignment-baseline:middle">-1</text></g><g><line x1="16.706" x2="16.706" y1="2" y2="7" stroke="#000" style="stroke-width:.2"/><text x="16.706" y="9" style="font-size:2px;font-family:Helvetica;text-anchor:middle;dominant-baseline:middle;alignment-baseline:middle">0</text></g><g><line x1="19.647" x2="19.647" y1="4" y2="6" stroke="#000" style="stroke-width:.2"/><text x="19.647" y="9" style="font-size:2px;font-family:Helvetica;text-anchor:middle;dominant-baseline:middle;alignment-baseline:middle">1</text></g><g><line x1="22.588" x2="22.588" y1="4" y2="6" stroke="#000" style="stroke-width:.2"/><text x="22.588" y="9" style="font-size:2px;font-family:Helvetica;text-anchor:middle;dominant-baseline:middle;alignment-baseline:middle">2</text></g><g><line x1="25.529" x2="25.529" y1="4" y2="6" stroke="#000" style="stroke-width:.2"/><text x="25.529" y="9" style="font-size:2px;font-family:Helvetica;text-anchor:middle;dominant-baseline:middle;alignment-baseline:middle">3</text></g><g><line x1="28.471" x2="28.471" y1="4" y2="6" stroke="#000" style="stroke-width:.2"/><text x="28.471" y="9" style="font-size:2px;font-family:Helvetica;text-anchor:middle;dominant-baseline:middle;alignment-baseline:middle">4</text></g><g><line x1="31.412" x2="31.412" y1="4" y2="6" stroke="#000" style="stroke-width:.2"/><text x="31.412" y="9" style="font-size:2px;font-family:Helvetica;text-anchor:middle;dominant-baseline:middle;alignment-baseline:middle">5</text></g><g><line x1="34.353" x2="34.353" y1="4" y2="6" stroke="#000" style="stroke-width:.2"/><text x="34.353" y="9" style="font-size:2px;font-family:Helvetica;text-anchor:middle;dominant-baseline:middle;alignment-baseline:middle">6</text></g><g><line x1="37.294" x2="37.294" y1="4" y2="6" stroke="#000" style="stroke-width:.2"/><text x="37.294" y="9" style="font-size:2px;font-family:Helvetica;text-anchor:middle;dominant-baseline:middle;alignment-baseline:middle">7</text></g><g><line x1="40.235" x2="40.235" y1="4" y2="6" stroke="#000" style="stroke-width:.2"/><text x="40.235" y="9" style="font-size:2px;font-family:Helvetica;text-anchor:middle;dominant-baseline:middle;alignment-baseline:middle">8</text></g><g><line x1="43.176" x2="43.176" y1="4" y2="6" stroke="#000" style="stroke-width:.2"/><text x="43.176" y="9" style="font-size:2px;font-family:Helvetica;text-anchor:middle;dominant-baseline:middle;alignment-baseline:middle">9</text></g><g><line x1="46.118" x2="46.118" y1="4" y2="6" stroke="#000" style="stroke-width:.2"/><text x="46.118" y="9" style="font-size:2px;font-family:Helvetica;text-anchor:middle;dominant-baseline:middle;alignment-baseline:middle">10</text></g><g><line x1="49.059" x2="49.059" y1="4" y2="6" stroke="#000" style="stroke-width:.2"/><text x="49.059" y="9" style="font-size:2px;font-family:Helvetica;text-anchor:middle;dominant-baseline:middle;alignment-baseline:middle">11</text></g><g><line x1="52" x2="52" y1="4" y2="6" stroke="#000" style="stroke-width:.2"/><text x="52" y="9" style="font-size:2px;font-family:Helvetica;text-anchor:middle;dominant-baseline:middle;alignment-baseline:middle">12</text></g><g><line x1="54.941" x2="54.941" y1="4" y2="6" stroke="#000" style="stroke-width:.2"/><text x="54.941" y="9" style="font-size:2px;font-family:Helvetica;text-anchor:middle;dominant-baseline:middle;alignment-baseline:middle">13</text></g><g><line x1="57.882" x2="57.882" y1="4" y2="6" stroke="#000" style="stroke-width:.2"/><text x="57.882" y="9" style="font-size:2px;font-family:Helvetica;text-anchor:middle;dominant-baseline:middle;alignment-baseline:middle">14</text></g><g><line x1="60.824" x2="60.824" y1="4" y2="6" stroke="#000" style="stroke-width:.2"/><text x="60.824" y="9" style="font-size:2px;font-family:Helvetica;text-anchor:middle;dominant-baseline:middle;alignment-baseline:middle">15</text></g><g><line x1="63.765" x2="63.765" y1="4" y2="6" stroke="#000" style="stroke-width:.2"/><text x="63.765" y="9" style="font-size:2px;font-family:Helvetica;text-anchor:middle;dominant-baseline:middle;alignment-baseline:middle">16</text></g><g><line x1="66.706" x2="66.706" y1="4" y2="6" stroke="#000" style="stroke-width:.2"/><text x="66.706" y="9" style="font-size:2px;font-family:Helvetica;text-anchor:middle;dominant-baseline:middle;alignment-baseline:middle">17</text></g><g><line x1="69.647" x2="69.647" y1="4" y2="6" stroke="#000" style="stroke-width:.2"/><text x="69.647" y="9" style="font-size:2px;font-family:Helvetica;text-anchor:middle;dominant-baseline:middle;alignment-baseline:middle">18</text></g><g><line x1="72.588" x2="72.588" y1="4" y2="6" stroke="#000" style="stroke-width:.2"/><text x="72.588" y="9" style="font-size:2px;font-family:Helvetica;text-anchor:middle;dominant-baseline:middle;alignment-baseline:middle">19</text></g><g><line x1="75.529" x2="75.529" y1="4" y2="6" stroke="#000" style="stroke-width:.2"/><text x="75.529" y="9" style="font-size:2px;font-family:Helvetica;text-anchor:middle;dominant-baseline:middle;alignment-baseline:middle">20</text></g><g><line x1="78.471" x2="78.471" y1="4" y2="6" stroke="#000" style="stroke-width:.2"/><text x="78.471" y="9" style="font-size:2px;font-family:Helvetica;text-anchor:middle;dominant-baseline:middle;alignment-baseline:middle">21</text></g><g><line x1="81.412" x2="81.412" y1="4" y2="6" stroke="#000" style="stroke-width:.2"/><text x="81.412" y="9" style="font-size:2px;font-family:Helvetica;text-anchor:middle;dominant-baseline:middle;alignment-baseline:middle">22</text></g><g><line x1="84.353" x2="84.353" y1="4" y2="6" stroke="#000" style="stroke-width:.2"/><text x="84.353" y="9" style="font-size:2px;font-family:Helvetica;text-anchor:middle;dominant-baseline:middle;alignment-baseline:middle">23</text></g><g><line x1="87.294" x2="87.294" y1="4" y2="6" stroke="#000" style="stroke-width:.2"/><text x="87.294" y="9" style="font-size:2px;font-family:Helvetica;text-anchor:middle;dominant-baseline:middle;alignment-baseline:middle">24</text></g><g><line x1="90.235" x2="90.235" y1="4" y2="6" stroke="#000" style="stroke-width:.2"/><text x="90.235" y="9" style="font-size:2px;font-family:Helvetica;text-anchor:middle;dominant-baseline:middle;alignment-baseline:middle">25</text></g><g><line x1="93.176" x2="93.176" y1="4" y2="6" stroke="#000" style="stroke-width:.2"/><text x="93.176" y="9" style="font-size:2px;font-family:Helvetica;text-anchor:middle;dominant-baseline:middle;alignment-baseline:middle">26</text></g><g><line x1="96.118" x2="96.118" y1="4" y2="6" stroke="#000" style="stroke-width:.2"/><text x="96.118" y="9" style="font-size:2px;font-family:Helvetica;text-anchor:middle;dominant-baseline:middle;alignment-baseline:middle">27</text></g><g><line x1="99.059" x2="99.059" y1="4" y2="6" stroke="#000" style="stroke-width:.2"/><text x="99.059" y="9" style="font-size:2px;font-family:Helvetica;text-anchor:middle;dominant-baseline:middle;alignment-baseline:middle">28</text></g><g id="inter1"><text x="46.118" y="4" stroke="#22f" transform="matrix(3,0,0,3,-92.3438,-7.6563)" style="font-size:2px;font-family:Helvetica;text-anchor:middle;dominant-baseline:middle;alignment-baseline:middle;stroke-width:.3;opacity:.5">[</text><text x="90.235" y="4" stroke="#22f" transform="matrix(3,0,0,3,-180.3438,-7.6563)" style="font-size:2px;font-family:Helvetica;text-anchor:middle;dominant-baseline:middle;alignment-baseline:middle;stroke-width:.3;opacity:.5">]</text><text x="46.118" y="0" transform="matrix(0.4,0,0,0.4,27.6469,-0.0938)" style="font-size:2px;font-family:Helvetica;text-anchor:middle;dominant-baseline:middle;alignment-baseline:middle">0000</text><text x="49.059" y="0" transform="matrix(0.4,0,0,0.4,29.4094,-0.0938)" style="font-size:2px;font-family:Helvetica;text-anchor:middle;dominant-baseline:middle;alignment-baseline:middle">0001</text><text x="52" y="0" transform="matrix(0.4,0,0,0.4,31.1719,-0.0938)" style="font-size:2px;font-family:Helvetica;text-anchor:middle;dominant-baseline:middle;alignment-baseline:middle">0010</text><text x="54.941" y="0" transform="matrix(0.4,0,0,0.4,32.9344,-0.0938)" style="font-size:2px;font-family:Helvetica;text-anchor:middle;dominant-baseline:middle;alignment-baseline:middle">0011</text><text x="57.882" y="0" transform="matrix(0.4,0,0,0.4,34.7062,-0.0938)" style="font-size:2px;font-family:Helvetica;text-anchor:middle;dominant-baseline:middle;alignment-baseline:middle">0100</text><text x="60.824" y="0" transform="matrix(0.4,0,0,0.4,36.4688,-0.0938)" style="font-size:2px;font-family:Helvetica;text-anchor:middle;dominant-baseline:middle;alignment-baseline:middle">0101</text><text x="63.765" y="0" transform="matrix(0.4,0,0,0.4,38.2313,-0.0938)" style="font-size:2px;font-family:Helvetica;text-anchor:middle;dominant-baseline:middle;alignment-baseline:middle">0110</text><text x="66.706" y="0" transform="matrix(0.4,0,0,0.4,39.9937,-0.0938)" style="font-size:2px;font-family:Helvetica;text-anchor:middle;dominant-baseline:middle;alignment-baseline:middle">0111</text><text x="69.647" y="0" transform="matrix(0.4,0,0,0.4,41.7844,-0.0938)" style="font-size:2px;font-family:Helvetica;text-anchor:middle;dominant-baseline:middle;alignment-baseline:middle">1000</text><text x="72.588" y="0" transform="matrix(0.4,0,0,0.4,43.5469,-0.0938)" style="font-size:2px;font-family:Helvetica;text-anchor:middle;dominant-baseline:middle;alignment-baseline:middle">1001</text><text x="75.529" y="0" transform="matrix(0.4,0,0,0.4,45.3187,-0.0938)" style="font-size:2px;font-family:Helvetica;text-anchor:middle;dominant-baseline:middle;alignment-baseline:middle">1010</text><text x="78.471" y="0" transform="matrix(0.4,0,0,0.4,47.0812,-0.0938)" style="font-size:2px;font-family:Helvetica;text-anchor:middle;dominant-baseline:middle;alignment-baseline:middle">1011</text><text x="81.412" y="0" transform="matrix(0.4,0,0,0.4,48.8438,-0.0938)" style="font-size:2px;font-family:Helvetica;text-anchor:middle;dominant-baseline:middle;alignment-baseline:middle">1100</text><text x="84.353" y="0" transform="matrix(0.4,0,0,0.4,50.6062,-0.0938)" style="font-size:2px;font-family:Helvetica;text-anchor:middle;dominant-baseline:middle;alignment-baseline:middle">1101</text><text x="87.294" y="0" transform="matrix(0.4,0,0,0.4,52.3781,-0.0938)" style="font-size:2px;font-family:Helvetica;text-anchor:middle;dominant-baseline:middle;alignment-baseline:middle">1110</text><text x="90.235" y="0" transform="matrix(0.4,0,0,0.4,54.1406,-0.0938)" style="font-size:2px;font-family:Helvetica;text-anchor:middle;dominant-baseline:middle;alignment-baseline:middle">1111</text></g></g><g transform="matrix(1,0,0,1,0,30)"><line x1="0" x2="100" y1="5" y2="5" stroke="#000" style="stroke-width:.2"/><g><line x1="2" x2="2" y1="4" y2="6" stroke="#000" style="stroke-width:.2"/><text x="2" y="9" style="font-size:2px;font-family:Helvetica;text-anchor:middle;dominant-baseline:middle;alignment-baseline:middle">-5</text></g><g><line x1="4.941" x2="4.941" y1="4" y2="6" stroke="#000" style="stroke-width:.2"/><text x="4.941" y="9" style="font-size:2px;font-family:Helvetica;text-anchor:middle;dominant-baseline:middle;alignment-baseline:middle">-4</text></g><g><line x1="7.882" x2="7.882" y1="4" y2="6" stroke="#000" style="stroke-width:.2"/><text x="7.882" y="9" style="font-size:2px;font-family:Helvetica;text-anchor:middle;dominant-baseline:middle;alignment-baseline:middle">-3</text></g><g><line x1="10.824" x2="10.824" y1="4" y2="6" stroke="#000" style="stroke-width:.2"/><text x="10.824" y="9" style="font-size:2px;font-family:Helvetica;text-anchor:middle;dominant-baseline:middle;alignment-baseline:middle">-2</text></g><g><line x1="13.765" x2="13.765" y1="4" y2="6" stroke="#000" style="stroke-width:.2"/><text x="13.765" y="9" style="font-size:2px;font-family:Helvetica;text-anchor:middle;dominant-baseline:middle;alignment-baseline:middle">-1</text></g><g><line x1="16.706" x2="16.706" y1="2" y2="7" stroke="#000" style="stroke-width:.2"/><text x="16.706" y="9" style="font-size:2px;font-family:Helvetica;text-anchor:middle;dominant-baseline:middle;alignment-baseline:middle">0</text></g><g><line x1="19.647" x2="19.647" y1="4" y2="6" stroke="#000" style="stroke-width:.2"/><text x="19.647" y="9" style="font-size:2px;font-family:Helvetica;text-anchor:middle;dominant-baseline:middle;alignment-baseline:middle">1</text></g><g><line x1="22.588" x2="22.588" y1="4" y2="6" stroke="#000" style="stroke-width:.2"/><text x="22.588" y="9" style="font-size:2px;font-family:Helvetica;text-anchor:middle;dominant-baseline:middle;alignment-baseline:middle">2</text></g><g><line x1="25.529" x2="25.529" y1="4" y2="6" stroke="#000" style="stroke-width:.2"/><text x="25.529" y="9" style="font-size:2px;font-family:Helvetica;text-anchor:middle;dominant-baseline:middle;alignment-baseline:middle">3</text></g><g><line x1="28.471" x2="28.471" y1="4" y2="6" stroke="#000" style="stroke-width:.2"/><text x="28.471" y="9" style="font-size:2px;font-family:Helvetica;text-anchor:middle;dominant-baseline:middle;alignment-baseline:middle">4</text></g><g><line x1="31.412" x2="31.412" y1="4" y2="6" stroke="#000" style="stroke-width:.2"/><text x="31.412" y="9" style="font-size:2px;font-family:Helvetica;text-anchor:middle;dominant-baseline:middle;alignment-baseline:middle">5</text></g><g><line x1="34.353" x2="34.353" y1="4" y2="6" stroke="#000" style="stroke-width:.2"/><text x="34.353" y="9" style="font-size:2px;font-family:Helvetica;text-anchor:middle;dominant-baseline:middle;alignment-baseline:middle">6</text></g><g><line x1="37.294" x2="37.294" y1="4" y2="6" stroke="#000" style="stroke-width:.2"/><text x="37.294" y="9" style="font-size:2px;font-family:Helvetica;text-anchor:middle;dominant-baseline:middle;alignment-baseline:middle">7</text></g><g><line x1="40.235" x2="40.235" y1="4" y2="6" stroke="#000" style="stroke-width:.2"/><text x="40.235" y="9" style="font-size:2px;font-family:Helvetica;text-anchor:middle;dominant-baseline:middle;alignment-baseline:middle">8</text></g><g><line x1="43.176" x2="43.176" y1="4" y2="6" stroke="#000" style="stroke-width:.2"/><text x="43.176" y="9" style="font-size:2px;font-family:Helvetica;text-anchor:middle;dominant-baseline:middle;alignment-baseline:middle">9</text></g><g><line x1="46.118" x2="46.118" y1="4" y2="6" stroke="#000" style="stroke-width:.2"/><text x="46.118" y="9" style="font-size:2px;font-family:Helvetica;text-anchor:middle;dominant-baseline:middle;alignment-baseline:middle">10</text></g><g><line x1="49.059" x2="49.059" y1="4" y2="6" stroke="#000" style="stroke-width:.2"/><text x="49.059" y="9" style="font-size:2px;font-family:Helvetica;text-anchor:middle;dominant-baseline:middle;alignment-baseline:middle">11</text></g><g><line x1="52" x2="52" y1="4" y2="6" stroke="#000" style="stroke-width:.2"/><text x="52" y="9" style="font-size:2px;font-family:Helvetica;text-anchor:middle;dominant-baseline:middle;alignment-baseline:middle">12</text></g><g><line x1="54.941" x2="54.941" y1="4" y2="6" stroke="#000" style="stroke-width:.2"/><text x="54.941" y="9" style="font-size:2px;font-family:Helvetica;text-anchor:middle;dominant-baseline:middle;alignment-baseline:middle">13</text></g><g><line x1="57.882" x2="57.882" y1="4" y2="6" stroke="#000" style="stroke-width:.2"/><text x="57.882" y="9" style="font-size:2px;font-family:Helvetica;text-anchor:middle;dominant-baseline:middle;alignment-baseline:middle">14</text></g><g><line x1="60.824" x2="60.824" y1="4" y2="6" stroke="#000" style="stroke-width:.2"/><text x="60.824" y="9" style="font-size:2px;font-family:Helvetica;text-anchor:middle;dominant-baseline:middle;alignment-baseline:middle">15</text></g><g><line x1="63.765" x2="63.765" y1="4" y2="6" stroke="#000" style="stroke-width:.2"/><text x="63.765" y="9" style="font-size:2px;font-family:Helvetica;text-anchor:middle;dominant-baseline:middle;alignment-baseline:middle">16</text></g><g><line x1="66.706" x2="66.706" y1="4" y2="6" stroke="#000" style="stroke-width:.2"/><text x="66.706" y="9" style="font-size:2px;font-family:Helvetica;text-anchor:middle;dominant-baseline:middle;alignment-baseline:middle">17</text></g><g><line x1="69.647" x2="69.647" y1="4" y2="6" stroke="#000" style="stroke-width:.2"/><text x="69.647" y="9" style="font-size:2px;font-family:Helvetica;text-anchor:middle;dominant-baseline:middle;alignment-baseline:middle">18</text></g><g><line x1="72.588" x2="72.588" y1="4" y2="6" stroke="#000" style="stroke-width:.2"/><text x="72.588" y="9" style="font-size:2px;font-family:Helvetica;text-anchor:middle;dominant-baseline:middle;alignment-baseline:middle">19</text></g><g><line x1="75.529" x2="75.529" y1="4" y2="6" stroke="#000" style="stroke-width:.2"/><text x="75.529" y="9" style="font-size:2px;font-family:Helvetica;text-anchor:middle;dominant-baseline:middle;alignment-baseline:middle">20</text></g><g><line x1="78.471" x2="78.471" y1="4" y2="6" stroke="#000" style="stroke-width:.2"/><text x="78.471" y="9" style="font-size:2px;font-family:Helvetica;text-anchor:middle;dominant-baseline:middle;alignment-baseline:middle">21</text></g><g><line x1="81.412" x2="81.412" y1="4" y2="6" stroke="#000" style="stroke-width:.2"/><text x="81.412" y="9" style="font-size:2px;font-family:Helvetica;text-anchor:middle;dominant-baseline:middle;alignment-baseline:middle">22</text></g><g><line x1="84.353" x2="84.353" y1="4" y2="6" stroke="#000" style="stroke-width:.2"/><text x="84.353" y="9" style="font-size:2px;font-family:Helvetica;text-anchor:middle;dominant-baseline:middle;alignment-baseline:middle">23</text></g><g><line x1="87.294" x2="87.294" y1="4" y2="6" stroke="#000" style="stroke-width:.2"/><text x="87.294" y="9" style="font-size:2px;font-family:Helvetica;text-anchor:middle;dominant-baseline:middle;alignment-baseline:middle">24</text></g><g><line x1="90.235" x2="90.235" y1="4" y2="6" stroke="#000" style="stroke-width:.2"/><text x="90.235" y="9" style="font-size:2px;font-family:Helvetica;text-anchor:middle;dominant-baseline:middle;alignment-baseline:middle">25</text></g><g><line x1="93.176" x2="93.176" y1="4" y2="6" stroke="#000" style="stroke-width:.2"/><text x="93.176" y="9" style="font-size:2px;font-family:Helvetica;text-anchor:middle;dominant-baseline:middle;alignment-baseline:middle">26</text></g><g><line x1="96.118" x2="96.118" y1="4" y2="6" stroke="#000" style="stroke-width:.2"/><text x="96.118" y="9" style="font-size:2px;font-family:Helvetica;text-anchor:middle;dominant-baseline:middle;alignment-baseline:middle">27</text></g><g><line x1="99.059" x2="99.059" y1="4" y2="6" stroke="#000" style="stroke-width:.2"/><text x="99.059" y="9" style="font-size:2px;font-family:Helvetica;text-anchor:middle;dominant-baseline:middle;alignment-baseline:middle">28</text></g><g id="inter2"><text x="7.882" y="4" stroke="#22f" transform="matrix(3,0,0,3,-15.875,-7.6563)" style="font-size:2px;font-family:Helvetica;text-anchor:middle;dominant-baseline:middle;alignment-baseline:middle;stroke-width:.3;opacity:.5">[</text><text x="28.471" y="4" stroke="#22f" transform="matrix(3,0,0,3,-56.8125,-7.6563)" style="font-size:2px;font-family:Helvetica;text-anchor:middle;dominant-baseline:middle;alignment-baseline:middle;stroke-width:.3;opacity:.5">]</text><text x="7.882" y="0" transform="matrix(0.4,0,0,0.4,4.7016,-0.0938)" style="font-size:2px;font-family:Helvetica;text-anchor:middle;dominant-baseline:middle;alignment-baseline:middle">000</text><text x="10.824" y="0" transform="matrix(0.4,0,0,0.4,6.4641,-0.0938)" style="font-size:2px;font-family:Helvetica;text-anchor:middle;dominant-baseline:middle;alignment-baseline:middle">001</text><text x="13.765" y="0" transform="matrix(0.4,0,0,0.4,8.2359,-0.0938)" style="font-size:2px;font-family:Helvetica;text-anchor:middle;dominant-baseline:middle;alignment-baseline:middle">010</text><text x="16.706" y="0" transform="matrix(0.4,0,0,0.4,9.9984,-0.0938)" style="font-size:2px;font-family:Helvetica;text-anchor:middle;dominant-baseline:middle;alignment-baseline:middle">011</text><text x="19.647" y="0" transform="matrix(0.4,0,0,0.4,11.7891,-0.0938)" style="font-size:2px;font-family:Helvetica;text-anchor:middle;dominant-baseline:middle;alignment-baseline:middle">100</text><text x="22.588" y="0" transform="matrix(0.4,0,0,0.4,13.5516,-0.0938)" style="font-size:2px;font-family:Helvetica;text-anchor:middle;dominant-baseline:middle;alignment-baseline:middle">101</text><text x="25.529" y="0" transform="matrix(0.4,0,0,0.4,15.3141,-0.0938)" style="font-size:2px;font-family:Helvetica;text-anchor:middle;dominant-baseline:middle;alignment-baseline:middle">110</text><text x="28.471" y="0" transform="matrix(0.4,0,0,0.4,17.0766,-0.0938)" style="font-size:2px;font-family:Helvetica;text-anchor:middle;dominant-baseline:middle;alignment-baseline:middle">111</text></g></g></svg>