<svg xmlns="http://www.w3.org/2000/svg" xmlns:svg="http://www.w3.org/2000/svg" xmlns:xlink="http://www.w3.org/1999/xlink" width="420" height="160"><g id="lb0"><text id="t0" x="7" y="129" alignment-baseline="middle" text-anchor="middle" type="span" style="fill:#323232;font-family:Arial;font-size:10">0</text><g id="byg0"><rect id="rby0bi0" width="10" height="10" x="15" y="124" style="fill:#fff;stroke:#323232"/><rect id="rby0bi1" width="10" height="10" x="25" y="124" style="fill:#fff;stroke:#323232"/><rect id="rby0bi2" width="10" height="10" x="35" y="124" style="fill:#fff;stroke:#323232"/><rect id="rby0bi3" width="10" height="10" x="45" y="124" style="fill:#fff;stroke:#323232"/><rect id="rby0bi4" width="10" height="10" x="55" y="124" style="fill:#fff;stroke:#323232"/><rect id="rby0bi5" width="10" height="10" x="65" y="124" style="fill:#fff;stroke:#323232"/><rect id="rby0bi6" width="10" height="10" x="75" y="124" style="fill:#fff;stroke:#323232"/><rect id="rby0bi7" width="10" height="10" x="85" y="124" style="fill:#fff;stroke:#323232"/></g></g><g id="lb1"><text id="t1" x="7" y="116" alignment-baseline="middle" text-anchor="middle" type="span" style="fill:#323232;font-family:Arial;font-size:10">1</text><g id="byg1"><rect id="rby1bi0" width="10" height="10" x="15" y="111" style="fill:#fff;stroke:#323232"/><rect id="rby1bi1" width="10" height="10" x="25" y="111" style="fill:#fff;stroke:#323232"/><rect id="rby1bi2" width="10" height="10" x="35" y="111" style="fill:#fff;stroke:#323232"/><rect id="rby1bi3" width="10" height="10" x="45" y="111" style="fill:#fff;stroke:#323232"/><rect id="rby1bi4" width="10" height="10" x="55" y="111" style="fill:#fff;stroke:#323232"/><rect id="rby1bi5" width="10" height="10" x="65" y="111" style="fill:#fff;stroke:#323232"/><rect id="rby1bi6" width="10" height="10" x="75" y="111" style="fill:#fff;stroke:#323232"/><rect id="rby1bi7" width="10" height="10" x="85" y="111" style="fill:#fff;stroke:#323232"/></g></g><g id="lb2"><text id="t2" x="7" y="103" alignment-baseline="middle" text-anchor="middle" type="span" style="fill:#323232;font-family:Arial;font-size:10">2</text><g id="byg2"><rect id="rby2bi0" width="10" height="10" x="15" y="98" style="fill:#fff;stroke:#323232"/><rect id="rby2bi1" width="10" height="10" x="25" y="98" style="fill:#fff;stroke:#323232"/><rect id="rby2bi2" width="10" height="10" x="35" y="98" style="fill:#fff;stroke:#323232"/><rect id="rby2bi3" width="10" height="10" x="45" y="98" style="fill:#fff;stroke:#323232"/><rect id="rby2bi4" width="10" height="10" x="55" y="98" style="fill:#fff;stroke:#323232"/><rect id="rby2bi5" width="10" height="10" x="65" y="98" style="fill:#fff;stroke:#323232"/><rect id="rby2bi6" width="10" height="10" x="75" y="98" style="fill:#fff;stroke:#323232"/><rect id="rby2bi7" width="10" height="10" x="85" y="98" style="fill:#fff;stroke:#323232"/></g></g><g id="lb3"><text id="t3" x="7" y="90" alignment-baseline="middle" text-anchor="middle" type="span" style="fill:#323232;font-family:Arial;font-size:10">3</text><g id="byg3"><rect id="rby3bi0" width="10" height="10" x="15" y="85" style="fill:#fff;stroke:#323232"/><rect id="rby3bi1" width="10" height="10" x="25" y="85" style="fill:#fff;stroke:#323232"/><rect id="rby3bi2" width="10" height="10" x="35" y="85" style="fill:#fff;stroke:#323232"/><rect id="rby3bi3" width="10" height="10" x="45" y="85" style="fill:#fff;stroke:#323232"/><rect id="rby3bi4" width="10" height="10" x="55" y="85" style="fill:#fff;stroke:#323232"/><rect id="rby3bi5" width="10" height="10" x="65" y="85" style="fill:#fff;stroke:#323232"/><rect id="rby3bi6" width="10" height="10" x="75" y="85" style="fill:#fff;stroke:#323232"/><rect id="rby3bi7" width="10" height="10" x="85" y="85" style="fill:#fff;stroke:#323232"/></g></g><g id="lb4"><text id="t4" x="7" y="77" alignment-baseline="middle" text-anchor="middle" type="span" style="fill:#323232;font-family:Arial;font-size:10">4</text><g id="byg4"><rect id="rby4bi0" width="10" height="10" x="15" y="72" style="fill:#fff;stroke:#323232"/><rect id="rby4bi1" width="10" height="10" x="25" y="72" style="fill:#fff;stroke:#323232"/><rect id="rby4bi2" width="10" height="10" x="35" y="72" style="fill:#fff;stroke:#323232"/><rect id="rby4bi3" width="10" height="10" x="45" y="72" style="fill:#fff;stroke:#323232"/><rect id="rby4bi4" width="10" height="10" x="55" y="72" style="fill:#fff;stroke:#323232"/><rect id="rby4bi5" width="10" height="10" x="65" y="72" style="fill:#fff;stroke:#323232"/><rect id="rby4bi6" width="10" height="10" x="75" y="72" style="fill:#fff;stroke:#323232"/><rect id="rby4bi7" width="10" height="10" x="85" y="72" style="fill:#fff;stroke:#323232"/></g></g><g id="lb5"><text id="t5" x="7" y="64" alignment-baseline="middle" text-anchor="middle" type="span" style="fill:#323232;font-family:Arial;font-size:10">5</text><g id="byg5"><rect id="rby5bi0" width="10" height="10" x="15" y="59" style="fill:#fff;stroke:#323232"/><rect id="rby5bi1" width="10" height="10" x="25" y="59" style="fill:#fff;stroke:#323232"/><rect id="rby5bi2" width="10" height="10" x="35" y="59" style="fill:#fff;stroke:#323232"/><rect id="rby5bi3" width="10" height="10" x="45" y="59" style="fill:#fff;stroke:#323232"/><rect id="rby5bi4" width="10" height="10" x="55" y="59" style="fill:#fff;stroke:#323232"/><rect id="rby5bi5" width="10" height="10" x="65" y="59" style="fill:#fff;stroke:#323232"/><rect id="rby5bi6" width="10" height="10" x="75" y="59" style="fill:#fff;stroke:#323232"/><rect id="rby5bi7" width="10" height="10" x="85" y="59" style="fill:#fff;stroke:#323232"/></g></g><g id="lb6"><text id="t6" x="7" y="51" alignment-baseline="middle" text-anchor="middle" type="span" style="fill:#323232;font-family:Arial;font-size:10">6</text><g id="byg6"><rect id="rby6bi0" width="10" height="10" x="15" y="46" style="fill:#fff;stroke:#323232"/><rect id="rby6bi1" width="10" height="10" x="25" y="46" style="fill:#fff;stroke:#323232"/><rect id="rby6bi2" width="10" height="10" x="35" y="46" style="fill:#fff;stroke:#323232"/><rect id="rby6bi3" width="10" height="10" x="45" y="46" style="fill:#fff;stroke:#323232"/><rect id="rby6bi4" width="10" height="10" x="55" y="46" style="fill:#fff;stroke:#323232"/><rect id="rby6bi5" width="10" height="10" x="65" y="46" style="fill:#fff;stroke:#323232"/><rect id="rby6bi6" width="10" height="10" x="75" y="46" style="fill:#fff;stroke:#323232"/><rect id="rby6bi7" width="10" height="10" x="85" y="46" style="fill:#fff;stroke:#323232"/></g></g><g id="lb7"><text id="t7" x="7" y="38" alignment-baseline="middle" text-anchor="middle" type="span" style="fill:#323232;font-family:Arial;font-size:10">7</text><g id="byg7"><rect id="rby7bi0" width="10" height="10" x="15" y="33" style="fill:#fff;stroke:#323232"/><rect id="rby7bi1" width="10" height="10" x="25" y="33" style="fill:#fff;stroke:#323232"/><rect id="rby7bi2" width="10" height="10" x="35" y="33" style="fill:#fff;stroke:#323232"/><rect id="rby7bi3" width="10" height="10" x="45" y="33" style="fill:#fff;stroke:#323232"/><rect id="rby7bi4" width="10" height="10" x="55" y="33" style="fill:#fff;stroke:#323232"/><rect id="rby7bi5" width="10" height="10" x="65" y="33" style="fill:#fff;stroke:#323232"/><rect id="rby7bi6" width="10" height="10" x="75" y="33" style="fill:#fff;stroke:#323232"/><rect id="rby7bi7" width="10" height="10" x="85" y="33" style="fill:#fff;stroke:#323232"/></g></g><g id="lb8"><text id="t8" x="111" y="129" alignment-baseline="middle" text-anchor="middle" type="span" style="fill:#323232;font-family:Arial;font-size:10">8</text><g id="byg8"><rect id="rby8bi0" width="10" height="10" x="119" y="124" style="fill:#fff;stroke:#323232"/><rect id="rby8bi1" width="10" height="10" x="129" y="124" style="fill:#fff;stroke:#323232"/><rect id="rby8bi2" width="10" height="10" x="139" y="124" style="fill:#fff;stroke:#323232"/><rect id="rby8bi3" width="10" height="10" x="149" y="124" style="fill:#fff;stroke:#323232"/><rect id="rby8bi4" width="10" height="10" x="159" y="124" style="fill:#fff;stroke:#323232"/><rect id="rby8bi5" width="10" height="10" x="169" y="124" style="fill:#fff;stroke:#323232"/><rect id="rby8bi6" width="10" height="10" x="179" y="124" style="fill:#fff;stroke:#323232"/><rect id="rby8bi7" width="10" height="10" x="189" y="124" style="fill:#fff;stroke:#323232"/></g></g><g id="lb9"><text id="t9" x="111" y="116" alignment-baseline="middle" text-anchor="middle" type="span" style="fill:#323232;font-family:Arial;font-size:10">9</text><g id="byg9"><rect id="rby9bi0" width="10" height="10" x="119" y="111" style="fill:#fff;stroke:#323232"/><rect id="rby9bi1" width="10" height="10" x="129" y="111" style="fill:#fff;stroke:#323232"/><rect id="rby9bi2" width="10" height="10" x="139" y="111" style="fill:#fff;stroke:#323232"/><rect id="rby9bi3" width="10" height="10" x="149" y="111" style="fill:#fff;stroke:#323232"/><rect id="rby9bi4" width="10" height="10" x="159" y="111" style="fill:#fff;stroke:#323232"/><rect id="rby9bi5" width="10" height="10" x="169" y="111" style="fill:#fff;stroke:#323232"/><rect id="rby9bi6" width="10" height="10" x="179" y="111" style="fill:#fff;stroke:#323232"/><rect id="rby9bi7" width="10" height="10" x="189" y="111" style="fill:#fff;stroke:#323232"/></g></g><g id="lb10"><text id="t10" x="111" y="103" alignment-baseline="middle" text-anchor="middle" type="span" style="fill:#323232;font-family:Arial;font-size:10">10</text><g id="byg10"><rect id="rby10bi0" width="10" height="10" x="119" y="98" style="fill:#fff;stroke:#323232"/><rect id="rby10bi1" width="10" height="10" x="129" y="98" style="fill:#fff;stroke:#323232"/><rect id="rby10bi2" width="10" height="10" x="139" y="98" style="fill:#fff;stroke:#323232"/><rect id="rby10bi3" width="10" height="10" x="149" y="98" style="fill:#fff;stroke:#323232"/><rect id="rby10bi4" width="10" height="10" x="159" y="98" style="fill:#fff;stroke:#323232"/><rect id="rby10bi5" width="10" height="10" x="169" y="98" style="fill:#fff;stroke:#323232"/><rect id="rby10bi6" width="10" height="10" x="179" y="98" style="fill:#fff;stroke:#323232"/><rect id="rby10bi7" width="10" height="10" x="189" y="98" style="fill:#fff;stroke:#323232"/></g></g><g id="lb11"><text id="t11" x="111" y="90" alignment-baseline="middle" text-anchor="middle" type="span" style="fill:#323232;font-family:Arial;font-size:10">11</text><g id="byg11"><rect id="rby11bi0" width="10" height="10" x="119" y="85" style="fill:#fff;stroke:#323232"/><rect id="rby11bi1" width="10" height="10" x="129" y="85" style="fill:#fff;stroke:#323232"/><rect id="rby11bi2" width="10" height="10" x="139" y="85" style="fill:#fff;stroke:#323232"/><rect id="rby11bi3" width="10" height="10" x="149" y="85" style="fill:#fff;stroke:#323232"/><rect id="rby11bi4" width="10" height="10" x="159" y="85" style="fill:#fff;stroke:#323232"/><rect id="rby11bi5" width="10" height="10" x="169" y="85" style="fill:#fff;stroke:#323232"/><rect id="rby11bi6" width="10" height="10" x="179" y="85" style="fill:#fff;stroke:#323232"/><rect id="rby11bi7" width="10" height="10" x="189" y="85" style="fill:#fff;stroke:#323232"/></g></g><g id="lb12"><text id="t12" x="111" y="77" alignment-baseline="middle" text-anchor="middle" type="span" style="fill:#323232;font-family:Arial;font-size:10">12</text><g id="byg12"><rect id="rby12bi0" width="10" height="10" x="119" y="72" style="fill:#fff;stroke:#323232"/><rect id="rby12bi1" width="10" height="10" x="129" y="72" style="fill:#fff;stroke:#323232"/><rect id="rby12bi2" width="10" height="10" x="139" y="72" style="fill:#fff;stroke:#323232"/><rect id="rby12bi3" width="10" height="10" x="149" y="72" style="fill:#fff;stroke:#323232"/><rect id="rby12bi4" width="10" height="10" x="159" y="72" style="fill:#fff;stroke:#323232"/><rect id="rby12bi5" width="10" height="10" x="169" y="72" style="fill:#fff;stroke:#323232"/><rect id="rby12bi6" width="10" height="10" x="179" y="72" style="fill:#fff;stroke:#323232"/><rect id="rby12bi7" width="10" height="10" x="189" y="72" style="fill:#fff;stroke:#323232"/></g></g><g id="lb13"><text id="t13" x="111" y="64" alignment-baseline="middle" text-anchor="middle" type="span" style="fill:#323232;font-family:Arial;font-size:10">13</text><g id="byg13"><rect id="rby13bi0" width="10" height="10" x="119" y="59" style="fill:#fff;stroke:#323232"/><rect id="rby13bi1" width="10" height="10" x="129" y="59" style="fill:#fff;stroke:#323232"/><rect id="rby13bi2" width="10" height="10" x="139" y="59" style="fill:#fff;stroke:#323232"/><rect id="rby13bi3" width="10" height="10" x="149" y="59" style="fill:#fff;stroke:#323232"/><rect id="rby13bi4" width="10" height="10" x="159" y="59" style="fill:#fff;stroke:#323232"/><rect id="rby13bi5" width="10" height="10" x="169" y="59" style="fill:#fff;stroke:#323232"/><rect id="rby13bi6" width="10" height="10" x="179" y="59" style="fill:#fff;stroke:#323232"/><rect id="rby13bi7" width="10" height="10" x="189" y="59" style="fill:#fff;stroke:#323232"/></g></g><g id="lb14"><text id="t14" x="111" y="51" alignment-baseline="middle" text-anchor="middle" type="span" style="fill:#323232;font-family:Arial;font-size:10">14</text><g id="byg14"><rect id="rby14bi0" width="10" height="10" x="119" y="46" style="fill:#fff;stroke:#323232"/><rect id="rby14bi1" width="10" height="10" x="129" y="46" style="fill:#fff;stroke:#323232"/><rect id="rby14bi2" width="10" height="10" x="139" y="46" style="fill:#fff;stroke:#323232"/><rect id="rby14bi3" width="10" height="10" x="149" y="46" style="fill:#fff;stroke:#323232"/><rect id="rby14bi4" width="10" height="10" x="159" y="46" style="fill:#fff;stroke:#323232"/><rect id="rby14bi5" width="10" height="10" x="169" y="46" style="fill:#fff;stroke:#323232"/><rect id="rby14bi6" width="10" height="10" x="179" y="46" style="fill:#fff;stroke:#323232"/><rect id="rby14bi7" width="10" height="10" x="189" y="46" style="fill:#fff;stroke:#323232"/></g></g><g id="lb15"><text id="t15" x="111" y="38" alignment-baseline="middle" text-anchor="middle" type="span" style="fill:#323232;font-family:Arial;font-size:10">15</text><g id="byg15"><rect id="rby15bi0" width="10" height="10" x="119" y="33" style="fill:#fff;stroke:#323232"/><rect id="rby15bi1" width="10" height="10" x="129" y="33" style="fill:#fff;stroke:#323232"/><rect id="rby15bi2" width="10" height="10" x="139" y="33" style="fill:#fff;stroke:#323232"/><rect id="rby15bi3" width="10" height="10" x="149" y="33" style="fill:#fff;stroke:#323232"/><rect id="rby15bi4" width="10" height="10" x="159" y="33" style="fill:#fff;stroke:#323232"/><rect id="rby15bi5" width="10" height="10" x="169" y="33" style="fill:#fff;stroke:#323232"/><rect id="rby15bi6" width="10" height="10" x="179" y="33" style="fill:#fff;stroke:#323232"/><rect id="rby15bi7" width="10" height="10" x="189" y="33" style="fill:#fff;stroke:#323232"/></g></g><g id="lb16"><text id="t16" x="215" y="129" alignment-baseline="middle" text-anchor="middle" type="span" style="fill:#323232;font-family:Arial;font-size:10">16</text><g id="byg16"><rect id="rby16bi0" width="10" height="10" x="223" y="124" style="fill:#fff;stroke:#323232"/><rect id="rby16bi1" width="10" height="10" x="233" y="124" style="fill:#fff;stroke:#323232"/><rect id="rby16bi2" width="10" height="10" x="243" y="124" style="fill:#fff;stroke:#323232"/><rect id="rby16bi3" width="10" height="10" x="253" y="124" style="fill:#fff;stroke:#323232"/><rect id="rby16bi4" width="10" height="10" x="263" y="124" style="fill:#fff;stroke:#323232"/><rect id="rby16bi5" width="10" height="10" x="273" y="124" style="fill:#fff;stroke:#323232"/><rect id="rby16bi6" width="10" height="10" x="283" y="124" style="fill:#fff;stroke:#323232"/><rect id="rby16bi7" width="10" height="10" x="293" y="124" style="fill:#fff;stroke:#323232"/></g></g><g id="lb17"><text id="t17" x="215" y="116" alignment-baseline="middle" text-anchor="middle" type="span" style="fill:#323232;font-family:Arial;font-size:10">17</text><g id="byg17"><rect id="rby17bi0" width="10" height="10" x="223" y="111" style="fill:#fff;stroke:#323232"/><rect id="rby17bi1" width="10" height="10" x="233" y="111" style="fill:#fff;stroke:#323232"/><rect id="rby17bi2" width="10" height="10" x="243" y="111" style="fill:#fff;stroke:#323232"/><rect id="rby17bi3" width="10" height="10" x="253" y="111" style="fill:#fff;stroke:#323232"/><rect id="rby17bi4" width="10" height="10" x="263" y="111" style="fill:#fff;stroke:#323232"/><rect id="rby17bi5" width="10" height="10" x="273" y="111" style="fill:#fff;stroke:#323232"/><rect id="rby17bi6" width="10" height="10" x="283" y="111" style="fill:#fff;stroke:#323232"/><rect id="rby17bi7" width="10" height="10" x="293" y="111" style="fill:#fff;stroke:#323232"/></g></g><g id="lb18"><text id="t18" x="215" y="103" alignment-baseline="middle" text-anchor="middle" type="span" style="fill:#323232;font-family:Arial;font-size:10">18</text><g id="byg18"><rect id="rby18bi0" width="10" height="10" x="223" y="98" style="fill:#fff;stroke:#323232"/><rect id="rby18bi1" width="10" height="10" x="233" y="98" style="fill:#fff;stroke:#323232"/><rect id="rby18bi2" width="10" height="10" x="243" y="98" style="fill:#fff;stroke:#323232"/><rect id="rby18bi3" width="10" height="10" x="253" y="98" style="fill:#fff;stroke:#323232"/><rect id="rby18bi4" width="10" height="10" x="263" y="98" style="fill:#fff;stroke:#323232"/><rect id="rby18bi5" width="10" height="10" x="273" y="98" style="fill:#fff;stroke:#323232"/><rect id="rby18bi6" width="10" height="10" x="283" y="98" style="fill:#fff;stroke:#323232"/><rect id="rby18bi7" width="10" height="10" x="293" y="98" style="fill:#fff;stroke:#323232"/></g></g><g id="lb19"><text id="t19" x="215" y="90" alignment-baseline="middle" text-anchor="middle" type="span" style="fill:#323232;font-family:Arial;font-size:10">19</text><g id="byg19"><rect id="rby19bi0" width="10" height="10" x="223" y="85" style="fill:#fff;stroke:#323232"/><rect id="rby19bi1" width="10" height="10" x="233" y="85" style="fill:#fff;stroke:#323232"/><rect id="rby19bi2" width="10" height="10" x="243" y="85" style="fill:#fff;stroke:#323232"/><rect id="rby19bi3" width="10" height="10" x="253" y="85" style="fill:#fff;stroke:#323232"/><rect id="rby19bi4" width="10" height="10" x="263" y="85" style="fill:#fff;stroke:#323232"/><rect id="rby19bi5" width="10" height="10" x="273" y="85" style="fill:#fff;stroke:#323232"/><rect id="rby19bi6" width="10" height="10" x="283" y="85" style="fill:#fff;stroke:#323232"/><rect id="rby19bi7" width="10" height="10" x="293" y="85" style="fill:#fff;stroke:#323232"/></g></g><g id="lb20"><text id="t20" x="215" y="77" alignment-baseline="middle" text-anchor="middle" type="span" style="fill:#323232;font-family:Arial;font-size:10">20</text><g id="byg20"><rect id="rby20bi0" width="10" height="10" x="223" y="72" style="fill:#fff;stroke:#323232"/><rect id="rby20bi1" width="10" height="10" x="233" y="72" style="fill:#fff;stroke:#323232"/><rect id="rby20bi2" width="10" height="10" x="243" y="72" style="fill:#fff;stroke:#323232"/><rect id="rby20bi3" width="10" height="10" x="253" y="72" style="fill:#fff;stroke:#323232"/><rect id="rby20bi4" width="10" height="10" x="263" y="72" style="fill:#fff;stroke:#323232"/><rect id="rby20bi5" width="10" height="10" x="273" y="72" style="fill:#fff;stroke:#323232"/><rect id="rby20bi6" width="10" height="10" x="283" y="72" style="fill:#fff;stroke:#323232"/><rect id="rby20bi7" width="10" height="10" x="293" y="72" style="fill:#fff;stroke:#323232"/></g></g><g id="lb21"><text id="t21" x="215" y="64" alignment-baseline="middle" text-anchor="middle" type="span" style="fill:#323232;font-family:Arial;font-size:10">21</text><g id="byg21"><rect id="rby21bi0" width="10" height="10" x="223" y="59" style="fill:#fff;stroke:#323232"/><rect id="rby21bi1" width="10" height="10" x="233" y="59" style="fill:#fff;stroke:#323232"/><rect id="rby21bi2" width="10" height="10" x="243" y="59" style="fill:#fff;stroke:#323232"/><rect id="rby21bi3" width="10" height="10" x="253" y="59" style="fill:#fff;stroke:#323232"/><rect id="rby21bi4" width="10" height="10" x="263" y="59" style="fill:#fff;stroke:#323232"/><rect id="rby21bi5" width="10" height="10" x="273" y="59" style="fill:#fff;stroke:#323232"/><rect id="rby21bi6" width="10" height="10" x="283" y="59" style="fill:#fff;stroke:#323232"/><rect id="rby21bi7" width="10" height="10" x="293" y="59" style="fill:#fff;stroke:#323232"/></g></g><g id="lb22"><text id="t22" x="215" y="51" alignment-baseline="middle" text-anchor="middle" type="span" style="fill:#323232;font-family:Arial;font-size:10">22</text><g id="byg22"><rect id="rby22bi0" width="10" height="10" x="223" y="46" style="fill:#fff;stroke:#323232"/><rect id="rby22bi1" width="10" height="10" x="233" y="46" style="fill:#fff;stroke:#323232"/><rect id="rby22bi2" width="10" height="10" x="243" y="46" style="fill:#fff;stroke:#323232"/><rect id="rby22bi3" width="10" height="10" x="253" y="46" style="fill:#fff;stroke:#323232"/><rect id="rby22bi4" width="10" height="10" x="263" y="46" style="fill:#fff;stroke:#323232"/><rect id="rby22bi5" width="10" height="10" x="273" y="46" style="fill:#fff;stroke:#323232"/><rect id="rby22bi6" width="10" height="10" x="283" y="46" style="fill:#fff;stroke:#323232"/><rect id="rby22bi7" width="10" height="10" x="293" y="46" style="fill:#fff;stroke:#323232"/></g></g><g id="lb23"><text id="t23" x="215" y="38" alignment-baseline="middle" text-anchor="middle" type="span" style="fill:#323232;font-family:Arial;font-size:10">23</text><g id="byg23"><rect id="rby23bi0" width="10" height="10" x="223" y="33" style="fill:#fff;stroke:#323232"/><rect id="rby23bi1" width="10" height="10" x="233" y="33" style="fill:#fff;stroke:#323232"/><rect id="rby23bi2" width="10" height="10" x="243" y="33" style="fill:#fff;stroke:#323232"/><rect id="rby23bi3" width="10" height="10" x="253" y="33" style="fill:#fff;stroke:#323232"/><rect id="rby23bi4" width="10" height="10" x="263" y="33" style="fill:#fff;stroke:#323232"/><rect id="rby23bi5" width="10" height="10" x="273" y="33" style="fill:#fff;stroke:#323232"/><rect id="rby23bi6" width="10" height="10" x="283" y="33" style="fill:#fff;stroke:#323232"/><rect id="rby23bi7" width="10" height="10" x="293" y="33" style="fill:#fff;stroke:#323232"/></g></g><g id="lb24"><text id="t24" x="319" y="129" alignment-baseline="middle" text-anchor="middle" type="span" style="fill:#323232;font-family:Arial;font-size:10">24</text><g id="byg24"><rect id="rby24bi0" width="10" height="10" x="327" y="124" style="fill:#fff;stroke:#323232"/><rect id="rby24bi1" width="10" height="10" x="337" y="124" style="fill:#fff;stroke:#323232"/><rect id="rby24bi2" width="10" height="10" x="347" y="124" style="fill:#fff;stroke:#323232"/><rect id="rby24bi3" width="10" height="10" x="357" y="124" style="fill:#fff;stroke:#323232"/><rect id="rby24bi4" width="10" height="10" x="367" y="124" style="fill:#fff;stroke:#323232"/><rect id="rby24bi5" width="10" height="10" x="377" y="124" style="fill:#fff;stroke:#323232"/><rect id="rby24bi6" width="10" height="10" x="387" y="124" style="fill:#fff;stroke:#323232"/><rect id="rby24bi7" width="10" height="10" x="397" y="124" style="fill:#fff;stroke:#323232"/></g></g><g id="lb25"><text id="t25" x="319" y="116" alignment-baseline="middle" text-anchor="middle" type="span" style="fill:#323232;font-family:Arial;font-size:10">25</text><g id="byg25"><rect id="rby25bi0" width="10" height="10" x="327" y="111" style="fill:#fff;stroke:#323232"/><rect id="rby25bi1" width="10" height="10" x="337" y="111" style="fill:#fff;stroke:#323232"/><rect id="rby25bi2" width="10" height="10" x="347" y="111" style="fill:#fff;stroke:#323232"/><rect id="rby25bi3" width="10" height="10" x="357" y="111" style="fill:#fff;stroke:#323232"/><rect id="rby25bi4" width="10" height="10" x="367" y="111" style="fill:#fff;stroke:#323232"/><rect id="rby25bi5" width="10" height="10" x="377" y="111" style="fill:#fff;stroke:#323232"/><rect id="rby25bi6" width="10" height="10" x="387" y="111" style="fill:#fff;stroke:#323232"/><rect id="rby25bi7" width="10" height="10" x="397" y="111" style="fill:#fff;stroke:#323232"/></g></g><g id="lb26"><text id="t26" x="319" y="103" alignment-baseline="middle" text-anchor="middle" type="span" style="fill:#323232;font-family:Arial;font-size:10">26</text><g id="byg26"><rect id="rby26bi0" width="10" height="10" x="327" y="98" style="fill:#fff;stroke:#323232"/><rect id="rby26bi1" width="10" height="10" x="337" y="98" style="fill:#fff;stroke:#323232"/><rect id="rby26bi2" width="10" height="10" x="347" y="98" style="fill:#fff;stroke:#323232"/><rect id="rby26bi3" width="10" height="10" x="357" y="98" style="fill:#fff;stroke:#323232"/><rect id="rby26bi4" width="10" height="10" x="367" y="98" style="fill:#fff;stroke:#323232"/><rect id="rby26bi5" width="10" height="10" x="377" y="98" style="fill:#fff;stroke:#323232"/><rect id="rby26bi6" width="10" height="10" x="387" y="98" style="fill:#fff;stroke:#323232"/><rect id="rby26bi7" width="10" height="10" x="397" y="98" style="fill:#fff;stroke:#323232"/></g></g><g id="lb27"><text id="t27" x="319" y="90" alignment-baseline="middle" text-anchor="middle" type="span" style="fill:#323232;font-family:Arial;font-size:10">27</text><g id="byg27"><rect id="rby27bi0" width="10" height="10" x="327" y="85" style="fill:#fff;stroke:#323232"/><rect id="rby27bi1" width="10" height="10" x="337" y="85" style="fill:#fff;stroke:#323232"/><rect id="rby27bi2" width="10" height="10" x="347" y="85" style="fill:#fff;stroke:#323232"/><rect id="rby27bi3" width="10" height="10" x="357" y="85" style="fill:#fff;stroke:#323232"/><rect id="rby27bi4" width="10" height="10" x="367" y="85" style="fill:#fff;stroke:#323232"/><rect id="rby27bi5" width="10" height="10" x="377" y="85" style="fill:#fff;stroke:#323232"/><rect id="rby27bi6" width="10" height="10" x="387" y="85" style="fill:#fff;stroke:#323232"/><rect id="rby27bi7" width="10" height="10" x="397" y="85" style="fill:#fff;stroke:#323232"/></g></g><g id="lb28"><text id="t28" x="319" y="77" alignment-baseline="middle" text-anchor="middle" type="span" style="fill:#323232;font-family:Arial;font-size:10">28</text><g id="byg28"><rect id="rby28bi0" width="10" height="10" x="327" y="72" style="fill:#fff;stroke:#323232"/><rect id="rby28bi1" width="10" height="10" x="337" y="72" style="fill:#fff;stroke:#323232"/><rect id="rby28bi2" width="10" height="10" x="347" y="72" style="fill:#fff;stroke:#323232"/><rect id="rby28bi3" width="10" height="10" x="357" y="72" style="fill:#fff;stroke:#323232"/><rect id="rby28bi4" width="10" height="10" x="367" y="72" style="fill:#fff;stroke:#323232"/><rect id="rby28bi5" width="10" height="10" x="377" y="72" style="fill:#fff;stroke:#323232"/><rect id="rby28bi6" width="10" height="10" x="387" y="72" style="fill:#fff;stroke:#323232"/><rect id="rby28bi7" width="10" height="10" x="397" y="72" style="fill:#fff;stroke:#323232"/></g></g><g id="lb29"><text id="t29" x="319" y="64" alignment-baseline="middle" text-anchor="middle" type="span" style="fill:#323232;font-family:Arial;font-size:10">29</text><g id="byg29"><rect id="rby29bi0" width="10" height="10" x="327" y="59" style="fill:#fff;stroke:#323232"/><rect id="rby29bi1" width="10" height="10" x="337" y="59" style="fill:#fff;stroke:#323232"/><rect id="rby29bi2" width="10" height="10" x="347" y="59" style="fill:#fff;stroke:#323232"/><rect id="rby29bi3" width="10" height="10" x="357" y="59" style="fill:#fff;stroke:#323232"/><rect id="rby29bi4" width="10" height="10" x="367" y="59" style="fill:#fff;stroke:#323232"/><rect id="rby29bi5" width="10" height="10" x="377" y="59" style="fill:#fff;stroke:#323232"/><rect id="rby29bi6" width="10" height="10" x="387" y="59" style="fill:#fff;stroke:#323232"/><rect id="rby29bi7" width="10" height="10" x="397" y="59" style="fill:#fff;stroke:#323232"/></g></g><g id="lb30"><text id="t30" x="319" y="51" alignment-baseline="middle" text-anchor="middle" type="span" style="fill:#323232;font-family:Arial;font-size:10">30</text><g id="byg30"><rect id="rby30bi0" width="10" height="10" x="327" y="46" style="fill:#fff;stroke:#323232"/><rect id="rby30bi1" width="10" height="10" x="337" y="46" style="fill:#fff;stroke:#323232"/><rect id="rby30bi2" width="10" height="10" x="347" y="46" style="fill:#fff;stroke:#323232"/><rect id="rby30bi3" width="10" height="10" x="357" y="46" style="fill:#fff;stroke:#323232"/><rect id="rby30bi4" width="10" height="10" x="367" y="46" style="fill:#fff;stroke:#323232"/><rect id="rby30bi5" width="10" height="10" x="377" y="46" style="fill:#fff;stroke:#323232"/><rect id="rby30bi6" width="10" height="10" x="387" y="46" style="fill:#fff;stroke:#323232"/><rect id="rby30bi7" width="10" height="10" x="397" y="46" style="fill:#fff;stroke:#323232"/></g></g><g id="lb31"><text id="t31" x="319" y="38" alignment-baseline="middle" text-anchor="middle" type="span" style="fill:#323232;font-family:Arial;font-size:10">31</text><g id="byg31"><rect id="rby31bi0" width="10" height="10" x="327" y="33" style="fill:#fff;stroke:#323232"/><rect id="rby31bi1" width="10" height="10" x="337" y="33" style="fill:#fff;stroke:#323232"/><rect id="rby31bi2" width="10" height="10" x="347" y="33" style="fill:#fff;stroke:#323232"/><rect id="rby31bi3" width="10" height="10" x="357" y="33" style="fill:#fff;stroke:#323232"/><rect id="rby31bi4" width="10" height="10" x="367" y="33" style="fill:#fff;stroke:#323232"/><rect id="rby31bi5" width="10" height="10" x="377" y="33" style="fill:#fff;stroke:#323232"/><rect id="rby31bi6" width="10" height="10" x="387" y="33" style="fill:#fff;stroke:#323232"/><rect id="rby31bi7" width="10" height="10" x="397" y="33" style="fill:#fff;stroke:#323232"/></g></g><g id="lbpc"><text id="tpc" x="7" y="15" alignment-baseline="middle" text-anchor="middle" type="span" style="fill:#323232;font-family:Arial;font-size:10">PC</text><g id="bygpc"><rect id="rbypcbi0" width="10" height="10" x="15" y="10" style="fill:#fff;stroke:#323232"/><rect id="rbypcbi1" width="10" height="10" x="25" y="10" style="fill:#fff;stroke:#323232"/><rect id="rbypcbi2" width="10" height="10" x="35" y="10" style="fill:#fff;stroke:#323232"/><rect id="rbypcbi3" width="10" height="10" x="45" y="10" style="fill:#fff;stroke:#323232"/><rect id="rbypcbi4" width="10" height="10" x="55" y="10" style="fill:#fff;stroke:#323232"/><rect id="rbypcbi5" width="10" height="10" x="65" y="10" style="fill:#fff;stroke:#323232"/><rect id="rbypcbi6" width="10" height="10" x="75" y="10" style="fill:#fff;stroke:#323232"/><rect id="rbypcbi7" width="10" height="10" x="85" y="10" style="fill:#fff;stroke:#323232"/></g></g><g id="lbir"><text id="tir" x="111" y="15" alignment-baseline="middle" text-anchor="middle" type="span" style="fill:#323232;font-family:Arial;font-size:10">IR</text><g id="bygir"><rect id="rbyirbi0" width="10" height="10" x="119" y="10" style="fill:#fff;stroke:#323232"/><rect id="rbyirbi1" width="10" height="10" x="129" y="10" style="fill:#fff;stroke:#323232"/><rect id="rbyirbi2" width="10" height="10" x="139" y="10" style="fill:#fff;stroke:#323232"/><rect id="rbyirbi3" width="10" height="10" x="149" y="10" style="fill:#fff;stroke:#323232"/><rect id="rbyirbi4" width="10" height="10" x="159" y="10" style="fill:#fff;stroke:#323232"/><rect id="rbyirbi5" width="10" height="10" x="169" y="10" style="fill:#fff;stroke:#323232"/><rect id="rbyirbi6" width="10" height="10" x="179" y="10" style="fill:#fff;stroke:#323232"/><rect id="rbyirbi7" width="10" height="10" x="189" y="10" style="fill:#fff;stroke:#323232"/></g></g><g id="lbac"><text id="tac" x="215" y="15" alignment-baseline="middle" text-anchor="middle" type="span" style="fill:#323232;font-family:Arial;font-size:10">Ac</text><g id="bygac"><rect id="rbyacbi0" width="10" height="10" x="223" y="10" style="fill:#fff;stroke:#323232"/><rect id="rbyacbi1" width="10" height="10" x="233" y="10" style="fill:#fff;stroke:#323232"/><rect id="rbyacbi2" width="10" height="10" x="243" y="10" style="fill:#fff;stroke:#323232"/><rect id="rbyacbi3" width="10" height="10" x="253" y="10" style="fill:#fff;stroke:#323232"/><rect id="rbyacbi4" width="10" height="10" x="263" y="10" style="fill:#fff;stroke:#323232"/><rect id="rbyacbi5" width="10" height="10" x="273" y="10" style="fill:#fff;stroke:#323232"/><rect id="rbyacbi6" width="10" height="10" x="283" y="10" style="fill:#fff;stroke:#323232"/><rect id="rbyacbi7" width="10" height="10" x="293" y="10" style="fill:#fff;stroke:#323232"/></g></g></svg>