<svg xmlns="http://www.w3.org/2000/svg" xmlns:ns1="http://sozi.baierouge.fr" xmlns:svg="http://www.w3.org/2000/svg" xmlns:xlink="http://www.w3.org/1999/xlink" id="svg7146" version="1.1" viewBox="0 0 128.78 84.75"><g id="layer1" transform="translate(-641.31 -627.12)"><path id="path1212" d="m643.39 655.28 124.68 0.46875 0.1225 29.272-0.0925 1.5138-0.55675 2.08-1.045 2.3975-1.6405 2.1092-2.7344 2.6367-3.5449 2.5293-4.458 2.3828-5.4199 2.2802-7.1924 2.3828-6.8896 1.7188-12.183 1.919-9.5508 0.86925-5.9766 0.1525-12.056-0.40525-12.539-1.4258-8.5107-1.9238-4.9414-1.2598-4.7607-1.4698-4.9121-2.08-4.0039-1.9728-4.6582-2.9394-2.8858-2.583-1.5235-1.8212-1.6162-2.6367-0.8155-1.87-0.49325-2.583z" style="fill-rule:evenodd;stroke:#7d7d7d;stroke-miterlimit:10;stroke-width:3.75;fill:#bdbdbd"/><path id="path1214" d="m768.23 654.01c0 13.809-27.983 25-62.5 25s-62.5-11.191-62.5-25c0-13.804 27.983-25 62.5-25s62.5 11.196 62.5 25" style="fill-rule:evenodd;stroke:#7d7d7d;stroke-miterlimit:10;stroke-width:3.75;fill:#bdbdbd"/><path id="path1216" d="m664.04 639.99 8.6182-3.2031 22.207 8.9502 9.3896-3.3154-4.1992 8.2862-24.194-0.1125 6.7383-2.539z" style="fill-rule:evenodd;stroke:#7d7d7d;stroke-miterlimit:10;stroke-width:1.25;fill:#fff"/><path id="path1218" d="m716.96 660.42-10.718 3.0908 4.1992-9.0576 26.626 0.332-10.054 3.0908 19.443 8.3984-8.2861 3.3154z" style="fill-rule:evenodd;stroke:#7d7d7d;stroke-miterlimit:10;stroke-width:1.25;fill:#fff"/><path id="path1220" d="m707.02 648.6 19.551-8.3984-10.273-2.9834 26.738-0.22 4.9707 8.5058-9.0625-2.7588-22.754 9.2773z" style="fill-rule:evenodd;stroke:#7d7d7d;stroke-miterlimit:10;stroke-width:1.25;fill:#fff"/><path id="path1222" d="m683.93 666.06 7.3975 2.7588-24.414-0.22-5.5224-9.0576 10.161 3.5352 22.432-9.502 9.0576 3.6475z" style="fill-rule:evenodd;stroke:#7d7d7d;stroke-miterlimit:10;stroke-width:1.25;fill:#fff"/></g><metadata/></svg>