<svg xmlns="http://www.w3.org/2000/svg" xmlns:anim="urn:oasis:names:tc:opendocument:xmlns:animation:1.0" xmlns:ooo="http://xml.openoffice.org/svg/export" xmlns:presentation="http://sun.com/xmlns/staroffice/presentation" xmlns:smil="http://www.w3.org/2001/SMIL20/" xmlns:xlink="http://www.w3.org/1999/xlink" width="35.37mm" height="37.29mm" fill-rule="evenodd" stroke-linejoin="round" stroke-width="28.222" preserveAspectRatio="xMidYMid" version="1.2" viewBox="12083 6310 3537 3729" xml:space="preserve"><defs class="ClipPathGroup"><clipPath id="presentation_clip_path" clipPathUnits="userSpaceOnUse"><rect width="3537" height="3729" x="12083" y="6310"/></clipPath></defs><defs class="EmbeddedBulletChars"><g id="bullet-char-template(57356)"><path d="M 580,1141 L 1163,571 580,0 -4,571 580,1141 Z" transform="scale(0.00048828125,-0.00048828125)"/></g><g id="bullet-char-template(57354)"><path d="M 8,1128 L 1137,1128 1137,0 8,0 8,1128 Z" transform="scale(0.00048828125,-0.00048828125)"/></g><g id="bullet-char-template(10146)"><path d="M 174,0 L 602,739 174,1481 1456,739 174,0 Z M 1358,739 L 309,1346 659,739 1358,739 Z" transform="scale(0.00048828125,-0.00048828125)"/></g><g id="bullet-char-template(10132)"><path d="M 2015,739 L 1276,0 717,0 1260,543 174,543 174,936 1260,936 717,1481 1274,1481 2015,739 Z" transform="scale(0.00048828125,-0.00048828125)"/></g><g id="bullet-char-template(10007)"><path d="M 0,-2 C -7,14 -16,27 -25,37 L 356,567 C 262,823 215,952 215,954 215,979 228,992 255,992 264,992 276,990 289,987 310,991 331,999 354,1012 L 381,999 492,748 772,1049 836,1024 860,1049 C 881,1039 901,1025 922,1006 886,937 835,863 770,784 769,783 710,716 594,584 L 774,223 C 774,196 753,168 711,139 L 727,119 C 717,90 699,76 672,76 641,76 570,178 457,381 L 164,-76 C 142,-110 111,-127 72,-127 30,-127 9,-110 8,-76 1,-67 -2,-52 -2,-32 -2,-23 -1,-13 0,-2 Z" transform="scale(0.00048828125,-0.00048828125)"/></g><g id="bullet-char-template(10004)"><path d="M 285,-33 C 182,-33 111,30 74,156 52,228 41,333 41,471 41,549 55,616 82,672 116,743 169,778 240,778 293,778 328,747 346,684 L 369,508 C 377,444 397,411 428,410 L 1163,1116 C 1174,1127 1196,1133 1229,1133 1271,1133 1292,1118 1292,1087 L 1292,965 C 1292,929 1282,901 1262,881 L 442,47 C 390,-6 338,-33 285,-33 Z" transform="scale(0.00048828125,-0.00048828125)"/></g><g id="bullet-char-template(9679)"><path d="M 813,0 C 632,0 489,54 383,161 276,268 223,411 223,592 223,773 276,916 383,1023 489,1130 632,1184 813,1184 992,1184 1136,1130 1245,1023 1353,916 1407,772 1407,592 1407,412 1353,268 1245,161 1136,54 992,0 813,0 Z" transform="scale(0.00048828125,-0.00048828125)"/></g><g id="bullet-char-template(8226)"><path d="M 346,457 C 273,457 209,483 155,535 101,586 74,649 74,723 74,796 101,859 155,911 209,963 273,989 346,989 419,989 480,963 531,910 582,859 608,796 608,723 608,648 583,586 532,535 482,483 420,457 346,457 Z" transform="scale(0.00048828125,-0.00048828125)"/></g><g id="bullet-char-template(8211)"><path d="M -4,459 L 1135,459 1135,606 -4,606 -4,459 Z" transform="scale(0.00048828125,-0.00048828125)"/></g></defs><g class="SlideGroup"><g><g id="id1" class="Slide" clip-path="url(#presentation_clip_path)"><g class="Page"><g class="Group"><g class="com.sun.star.drawing.ClosedBezierShape"><g id="id3"><rect width="1566" height="981" x="14055" y="9039" fill="none" stroke="none" class="BoundingBox"/><path fill="#DDD" stroke="none" d="M 14056,10018 C 14414,10018 15619,9642 15619,9341 15619,9040 15488,9040 15358,9040 15358,9266 14056,9717 14056,10018 Z"/><path fill="none" stroke="#DDD" d="M 14056,10018 C 14414,10018 15619,9642 15619,9341 15619,9040 15488,9040 15358,9040 15358,9266 14056,9717 14056,10018 Z"/></g></g><g class="Group"><g class="com.sun.star.drawing.PolyPolygonShape"><g id="id4"><rect width="1343" height="1322" x="14036" y="8719" fill="none" stroke="none" class="BoundingBox"/><g><defs><pattern id="pattern1" width="1303" height="1281" x="14056" y="8739" patternUnits="userSpaceOnUse"><g><path fill="#B3B3B3" stroke="none" d="M 14055,8738 L 15359,8738 15359,10020 14055,10020 14055,8738 Z M 13808,8494 L 15084,8494 15084,9750 13808,9750 13808,8494 Z" transform="translate(-14056,-8739)"/><path fill="#B4B4B4" stroke="none" d="M 13808,8494 L 15084,8494 15084,9750 13808,9750 13808,8494 Z M 13821,8507 L 15071,8507 15071,9737 13821,9737 13821,8507 Z" transform="translate(-14056,-8739)"/><path fill="#B5B5B5" stroke="none" d="M 13821,8507 L 15071,8507 15071,9737 13821,9737 13821,8507 Z M 13834,8520 L 15058,8520 15058,9724 13834,9724 13834,8520 Z" transform="translate(-14056,-8739)"/><path fill="#B6B6B6" stroke="none" d="M 13834,8520 L 15058,8520 15058,9724 13834,9724 13834,8520 Z M 13847,8533 L 15045,8533 15045,9711 13847,9711 13847,8533 Z" transform="translate(-14056,-8739)"/><path fill="#B7B7B7" stroke="none" d="M 13847,8533 L 15045,8533 15045,9711 13847,9711 13847,8533 Z M 13860,8546 L 15032,8546 15032,9698 13860,9698 13860,8546 Z" transform="translate(-14056,-8739)"/><path fill="#B8B8B8" stroke="none" d="M 13860,8546 L 15032,8546 15032,9698 13860,9698 13860,8546 Z M 13873,8558 L 15019,8558 15019,9686 13873,9686 13873,8558 Z" transform="translate(-14056,-8739)"/><path fill="#B9B9B9" stroke="none" d="M 13873,8558 L 15019,8558 15019,9686 13873,9686 13873,8558 Z M 13886,8571 L 15006,8571 15006,9673 13886,9673 13886,8571 Z" transform="translate(-14056,-8739)"/><path fill="#BABABA" stroke="none" d="M 13886,8571 L 15006,8571 15006,9673 13886,9673 13886,8571 Z M 13899,8584 L 14993,8584 14993,9660 13899,9660 13899,8584 Z" transform="translate(-14056,-8739)"/><path fill="#BBB" stroke="none" d="M 13899,8584 L 14993,8584 14993,9660 13899,9660 13899,8584 Z M 13912,8597 L 14980,8597 14980,9647 13912,9647 13912,8597 Z" transform="translate(-14056,-8739)"/><path fill="#BCBCBC" stroke="none" d="M 13912,8597 L 14980,8597 14980,9647 13912,9647 13912,8597 Z M 13925,8610 L 14967,8610 14967,9634 13925,9634 13925,8610 Z" transform="translate(-14056,-8739)"/><path fill="#BDBDBD" stroke="none" d="M 13925,8610 L 14967,8610 14967,9634 13925,9634 13925,8610 Z M 13938,8623 L 14954,8623 14954,9621 13938,9621 13938,8623 Z" transform="translate(-14056,-8739)"/><path fill="#BEBEBE" stroke="none" d="M 13938,8623 L 14954,8623 14954,9621 13938,9621 13938,8623 Z M 13951,8635 L 14941,8635 14941,9609 13951,9609 13951,8635 Z" transform="translate(-14056,-8739)"/><path fill="#BFBFBF" stroke="none" d="M 13951,8635 L 14941,8635 14941,9609 13951,9609 13951,8635 Z M 13964,8648 L 14928,8648 14928,9596 13964,9596 13964,8648 Z" transform="translate(-14056,-8739)"/><path fill="silver" stroke="none" d="M 13964,8648 L 14928,8648 14928,9596 13964,9596 13964,8648 Z M 13977,8661 L 14915,8661 14915,9583 13977,9583 13977,8661 Z" transform="translate(-14056,-8739)"/><path fill="#C1C1C1" stroke="none" d="M 13977,8661 L 14915,8661 14915,9583 13977,9583 13977,8661 Z M 13990,8674 L 14902,8674 14902,9570 13990,9570 13990,8674 Z" transform="translate(-14056,-8739)"/><path fill="#C2C2C2" stroke="none" d="M 13990,8674 L 14902,8674 14902,9570 13990,9570 13990,8674 Z M 14003,8687 L 14889,8687 14889,9557 14003,9557 14003,8687 Z" transform="translate(-14056,-8739)"/><path fill="#C3C3C3" stroke="none" d="M 14003,8687 L 14889,8687 14889,9557 14003,9557 14003,8687 Z M 14016,8700 L 14876,8700 14876,9544 14016,9544 14016,8700 Z" transform="translate(-14056,-8739)"/><path fill="#C4C4C4" stroke="none" d="M 14016,8700 L 14876,8700 14876,9544 14016,9544 14016,8700 Z M 14029,8712 L 14863,8712 14863,9532 14029,9532 14029,8712 Z" transform="translate(-14056,-8739)"/><path fill="#C5C5C5" stroke="none" d="M 14029,8712 L 14863,8712 14863,9532 14029,9532 14029,8712 Z M 14041,8724 L 14850,8724 14850,9519 14041,9519 14041,8724 Z" transform="translate(-14056,-8739)"/><path fill="#C6C6C6" stroke="none" d="M 14041,8724 L 14850,8724 14850,9519 14041,9519 14041,8724 Z M 14055,8737 L 14837,8737 14837,9506 14055,9506 14055,8737 Z" transform="translate(-14056,-8739)"/><path fill="#C7C7C7" stroke="none" d="M 14055,8737 L 14837,8737 14837,9506 14055,9506 14055,8737 Z M 14068,8750 L 14823,8750 14823,9493 14068,9493 14068,8750 Z" transform="translate(-14056,-8739)"/><path fill="#C8C8C8" stroke="none" d="M 14068,8750 L 14823,8750 14823,9493 14068,9493 14068,8750 Z M 14081,8763 L 14810,8763 14810,9480 14081,9480 14081,8763 Z" transform="translate(-14056,-8739)"/><path fill="#C9C9C9" stroke="none" d="M 14081,8763 L 14810,8763 14810,9480 14081,9480 14081,8763 Z M 14094,8776 L 14797,8776 14797,9467 14094,9467 14094,8776 Z" transform="translate(-14056,-8739)"/><path fill="#CACACA" stroke="none" d="M 14094,8776 L 14797,8776 14797,9467 14094,9467 14094,8776 Z M 14107,8788 L 14784,8788 14784,9455 14107,9455 14107,8788 Z" transform="translate(-14056,-8739)"/><path fill="#CBCBCB" stroke="none" d="M 14107,8788 L 14784,8788 14784,9455 14107,9455 14107,8788 Z M 14120,8801 L 14771,8801 14771,9442 14120,9442 14120,8801 Z" transform="translate(-14056,-8739)"/><path fill="#CCC" stroke="none" d="M 14120,8801 L 14771,8801 14771,9442 14120,9442 14120,8801 Z M 14133,8814 L 14758,8814 14758,9429 14133,9429 14133,8814 Z" transform="translate(-14056,-8739)"/><path fill="#CDCDCD" stroke="none" d="M 14133,8814 L 14758,8814 14758,9429 14133,9429 14133,8814 Z M 14146,8827 L 14745,8827 14745,9416 14146,9416 14146,8827 Z" transform="translate(-14056,-8739)"/><path fill="#CECECE" stroke="none" d="M 14146,8827 L 14745,8827 14745,9416 14146,9416 14146,8827 Z M 14159,8840 L 14732,8840 14732,9403 14159,9403 14159,8840 Z" transform="translate(-14056,-8739)"/><path fill="#CFCFCF" stroke="none" d="M 14159,8840 L 14732,8840 14732,9403 14159,9403 14159,8840 Z M 14172,8853 L 14719,8853 14719,9390 14172,9390 14172,8853 Z" transform="translate(-14056,-8739)"/><path fill="#D0D0D0" stroke="none" d="M 14172,8853 L 14719,8853 14719,9390 14172,9390 14172,8853 Z M 14185,8865 L 14706,8865 14706,9378 14185,9378 14185,8865 Z" transform="translate(-14056,-8739)"/><path fill="#D1D1D1" stroke="none" d="M 14185,8865 L 14706,8865 14706,9378 14185,9378 14185,8865 Z M 14198,8878 L 14693,8878 14693,9365 14198,9365 14198,8878 Z" transform="translate(-14056,-8739)"/><path fill="#D2D2D2" stroke="none" d="M 14198,8878 L 14693,8878 14693,9365 14198,9365 14198,8878 Z M 14211,8891 L 14680,8891 14680,9352 14211,9352 14211,8891 Z" transform="translate(-14056,-8739)"/><path fill="#D3D3D3" stroke="none" d="M 14211,8891 L 14680,8891 14680,9352 14211,9352 14211,8891 Z M 14224,8904 L 14667,8904 14667,9339 14224,9339 14224,8904 Z" transform="translate(-14056,-8739)"/><path fill="#D4D4D4" stroke="none" d="M 14224,8904 L 14667,8904 14667,9339 14224,9339 14224,8904 Z M 14237,8917 L 14654,8917 14654,9326 14237,9326 14237,8917 Z" transform="translate(-14056,-8739)"/><path fill="#D5D5D5" stroke="none" d="M 14237,8917 L 14654,8917 14654,9326 14237,9326 14237,8917 Z M 14250,8930 L 14641,8930 14641,9313 14250,9313 14250,8930 Z" transform="translate(-14056,-8739)"/><path fill="#D6D6D6" stroke="none" d="M 14250,8930 L 14641,8930 14641,9313 14250,9313 14250,8930 Z M 14263,8942 L 14628,8942 14628,9301 14263,9301 14263,8942 Z" transform="translate(-14056,-8739)"/><path fill="#D7D7D7" stroke="none" d="M 14263,8942 L 14628,8942 14628,9301 14263,9301 14263,8942 Z M 14276,8955 L 14615,8955 14615,9288 14276,9288 14276,8955 Z" transform="translate(-14056,-8739)"/><path fill="#D8D8D8" stroke="none" d="M 14276,8955 L 14615,8955 14615,9288 14276,9288 14276,8955 Z M 14289,8968 L 14602,8968 14602,9275 14289,9275 14289,8968 Z" transform="translate(-14056,-8739)"/><path fill="#D9D9D9" stroke="none" d="M 14289,8968 L 14602,8968 14602,9275 14289,9275 14289,8968 Z M 14302,8981 L 14589,8981 14589,9262 14302,9262 14302,8981 Z" transform="translate(-14056,-8739)"/><path fill="#DADADA" stroke="none" d="M 14302,8981 L 14589,8981 14589,9262 14302,9262 14302,8981 Z M 14316,8994 L 14576,8994 14576,9249 14316,9249 14316,8994 Z" transform="translate(-14056,-8739)"/><path fill="#DBDBDB" stroke="none" d="M 14316,8994 L 14576,8994 14576,9249 14316,9249 14316,8994 Z M 14329,9007 L 14562,9007 14562,9236 14329,9236 14329,9007 Z" transform="translate(-14056,-8739)"/><path fill="#DCDCDC" stroke="none" d="M 14329,9007 L 14562,9007 14562,9236 14329,9236 14329,9007 Z M 14342,9019 L 14549,9019 14549,9224 14342,9224 14342,9019 Z" transform="translate(-14056,-8739)"/><path fill="#DDD" stroke="none" d="M 14342,9019 L 14549,9019 14549,9224 14342,9224 14342,9019 Z M 14355,9032 L 14536,9032 14536,9211 14355,9211 14355,9032 Z" transform="translate(-14056,-8739)"/><path fill="#DEDEDE" stroke="none" d="M 14355,9032 L 14536,9032 14536,9211 14355,9211 14355,9032 Z M 14368,9045 L 14523,9045 14523,9198 14368,9198 14368,9045 Z" transform="translate(-14056,-8739)"/><path fill="#DFDFDF" stroke="none" d="M 14368,9045 L 14523,9045 14523,9198 14368,9198 14368,9045 Z M 14381,9058 L 14510,9058 14510,9185 14381,9185 14381,9058 Z" transform="translate(-14056,-8739)"/><path fill="#E0E0E0" stroke="none" d="M 14381,9058 L 14510,9058 14510,9185 14381,9185 14381,9058 Z M 14394,9071 L 14497,9071 14497,9172 14394,9172 14394,9071 Z" transform="translate(-14056,-8739)"/><path fill="#E1E1E1" stroke="none" d="M 14394,9071 L 14497,9071 14497,9172 14394,9172 14394,9071 Z M 14407,9084 L 14484,9084 14484,9159 14407,9159 14407,9084 Z" transform="translate(-14056,-8739)"/><path fill="#E2E2E2" stroke="none" d="M 14407,9084 L 14484,9084 14484,9159 14407,9159 14407,9084 Z M 14420,9096 L 14471,9096 14471,9147 14420,9147 14420,9096 Z" transform="translate(-14056,-8739)"/><path fill="#E3E3E3" stroke="none" d="M 14420,9096 L 14471,9096 14471,9147 14420,9147 14420,9096 Z M 14433,9109 L 14458,9109 14458,9134 14433,9134 14433,9109 Z" transform="translate(-14056,-8739)"/><path fill="#E5E5E5" stroke="none" d="M 14433,9109 L 14458,9109 14458,9134 14433,9134 14433,9109 Z" transform="translate(-14056,-8739)"/></g></pattern></defs><path style="fill:url(#pattern1)" d="M 14056,10019 L 14056,9492 15358,8739 15358,9266 14056,10019 Z"/></g><path fill="none" stroke="#FFF" stroke-linejoin="round" stroke-width="40" d="M 14056,10019 L 14056,9492 15358,8739 15358,9266 14056,10019 Z"/></g></g><g class="com.sun.star.drawing.PolyPolygonShape"><g id="id5"><rect width="3297" height="1923" x="12083" y="7590" fill="none" stroke="none" class="BoundingBox"/><g><defs><linearGradient id="gradient1" x1="13730" x2="13730" y1="7610" y2="9492" gradientUnits="userSpaceOnUse"><stop offset=".1" style="stop-color:#b3b3b3"/><stop offset="1" style="stop-color:#e5e5e5"/></linearGradient></defs><path style="fill:url(#gradient1)" d="M 14056,9492 L 12103,8363 13405,7610 15358,8739 14056,9492 Z"/></g><path fill="none" stroke="#FFF" stroke-linejoin="round" stroke-width="40" d="M 14056,9492 L 12103,8363 13405,7610 15358,8739 14056,9492 Z"/></g></g><g class="com.sun.star.drawing.PolyPolygonShape"><g id="id6"><rect width="1994" height="1698" x="12083" y="8341" fill="none" stroke="none" class="BoundingBox"/><g><defs><linearGradient id="gradient2" x1="12102" x2="14056" y1="9190" y2="9190" gradientUnits="userSpaceOnUse"><stop offset=".1" style="stop-color:#b3b3b3"/><stop offset="1" style="stop-color:#e5e5e5"/></linearGradient></defs><path style="fill:url(#gradient2)" d="M 12103,8889 L 12103,8362 14056,9491 14056,10018 12103,8889 Z"/></g><path fill="none" stroke="#FFF" stroke-linejoin="round" stroke-width="40" d="M 12103,8889 L 12103,8362 14056,9491 14056,10018 12103,8889 Z"/></g></g><g class="com.sun.star.drawing.PolyPolygonShape"><g id="id7"><rect width="3297" height="2450" x="12083" y="7590" fill="none" stroke="none" class="BoundingBox"/><path fill="none" stroke="#000" stroke-linejoin="round" stroke-width="40" d="M 12103,8890 L 12103,8363 13405,7610 15358,8739 15358,9266 14056,10019 12103,8890 Z"/></g></g><g class="com.sun.star.drawing.PolyPolygonShape"><g id="id8"><rect width="171" height="342" x="13646" y="9396" fill="none" stroke="none" class="BoundingBox"/><path fill="#D1616C" stroke="none" d="M 13666,9642 L 13666,9416 13796,9491 13796,9717 13666,9642 Z"/><path fill="none" stroke="#7F7F7F" stroke-linejoin="round" stroke-width="40" d="M 13666,9642 L 13666,9416 13796,9491 13796,9717 13666,9642 Z"/></g></g><g class="com.sun.star.drawing.PolyPolygonShape"><g id="id9"><rect width="172" height="1471" x="13515" y="6310" fill="none" stroke="none" class="BoundingBox"/><path fill="#CCC" stroke="none" d="M 13535,7685 L 13535,6330 13665,6330 13665,7760 13535,7685 Z"/><path fill="none" stroke="#000" stroke-linejoin="round" stroke-width="40" d="M 13535,7685 L 13535,6330 13665,6330 13665,7760 13535,7685 Z"/></g></g><g class="com.sun.star.drawing.PolyPolygonShape"><g id="id10"><rect width="171" height="1471" x="15078" y="7213" fill="none" stroke="none" class="BoundingBox"/><path fill="#CCC" stroke="none" d="M 15098,8588 L 15098,7233 15228,7233 15228,8663 15098,8588 Z"/><path fill="none" stroke="#000" stroke-linejoin="round" stroke-width="40" d="M 15098,8588 L 15098,7233 15228,7233 15228,8663 15098,8588 Z"/></g></g></g></g></g></g></g></g></svg>